# xmcd CD database file
# Copyright (C) 1997 Ti Kan
# 
# Track frame offsets:
#     150
#     19600
#     33857
#     52160
#     66960
#     81635
#     95347
#     118345
#     134045
#     146572
#     160397
#     180057
#     197097
#     208970
#     224012
#     236190
#     247682
#     264782
#     278960
# 
# Disc length: 3872 seconds
# 
# Revision: 1
# Processed by: cddbd v1.4b41PL1 Copyright (c) Steve Scherf et al.
# Submitted via: DiscPlay 4.0.4
# 
DISCID=240f1e13
DTITLE=Almirante - Almirante
DYEAR=1900
DGENRE=
TTITLE0=Rei Do Acelerador
TTITLE1=Empres rio Rural
TTITLE2=Rel quia Do Nosso Estado
TTITLE3=Ponto Final
TTITLE4=Vivendo De Lembran as
TTITLE5=Quem Diria
TTITLE6=Guri De Est ncia
TTITLE7=Xote Do Touro
TTITLE8=Morena Regina
TTITLE9=Um Pito
TTITLE10=Caminhoneiro
TTITLE11=Melodia Da Saudade
TTITLE12=Amor Em Qualquer Lugar
TTITLE13=Calend rio Do Amor
TTITLE14=Louca Paix o
TTITLE15=Toda Vez
TTITLE16=V  Embora Tristeza
TTITLE17=Divis o De Bens
TTITLE18=Pouco
EXTD=
EXTT0=
EXTT1=
EXTT2=
EXTT3=
EXTT4=
EXTT5=
EXTT6=
EXTT7=
EXTT8=
EXTT9=
EXTT10=
EXTT11=
EXTT12=
EXTT13=
EXTT14=
EXTT15=
EXTT16=
EXTT17=
EXTT18=
PLAYORDER=
